<?xml version="1.0" encoding="UTF-8" standalone="no"?>
<!-- Created with Inkscape (http://www.inkscape.org/) -->

<svg
   width="210mm"
   height="297mm"
   viewBox="0 0 210 297"
   version="1.1"
   id="svg1459"
   inkscape:version="1.2.2 (732a01da63, 2022-12-09)"
   sodipodi:docname="Aveon New Logo.svg"
   inkscape:export-filename="Aveon New Logo.pdf"
   inkscape:export-xdpi="96"
   inkscape:export-ydpi="96"
   xmlns:inkscape="http://www.inkscape.org/namespaces/inkscape"
   xmlns:sodipodi="http://sodipodi.sourceforge.net/DTD/sodipodi-0.dtd"
   xmlns:xlink="http://www.w3.org/1999/xlink"
   xmlns="http://www.w3.org/2000/svg"
   xmlns:svg="http://www.w3.org/2000/svg">
  <sodipodi:namedview
     id="namedview1461"
     pagecolor="#ffffff"
     bordercolor="#666666"
     borderopacity="1.0"
     inkscape:showpageshadow="2"
     inkscape:pageopacity="0.0"
     inkscape:pagecheckerboard="0"
     inkscape:deskcolor="#d1d1d1"
     inkscape:document-units="mm"
     showgrid="false"
     inkscape:zoom="0.46769781"
     inkscape:cx="258.71406"
     inkscape:cy="221.29674"
     inkscape:window-width="1366"
     inkscape:window-height="706"
     inkscape:window-x="-8"
     inkscape:window-y="-8"
     inkscape:window-maximized="1"
     inkscape:current-layer="layer1"
     showguides="true">
    <sodipodi:guide
       position="39.034286,164.05714"
       orientation="1,0"
       id="guide2219"
       inkscape:locked="false" />
    <sodipodi:guide
       position="161.22857,69.582859"
       orientation="1,0"
       id="guide2221"
       inkscape:locked="false" />
  </sodipodi:namedview>
  <defs
     id="defs1456">
    <linearGradient
       inkscape:collect="always"
       xlink:href="#linearGradient10887"
       id="linearGradient14981"
       gradientUnits="userSpaceOnUse"
       gradientTransform="matrix(3,0,0,3,-336.76908,-178.62067)"
       x1="145.03403"
       y1="81.072395"
       x2="145.03403"
       y2="116.1087" />
    <linearGradient
       inkscape:collect="always"
       id="linearGradient10887">
      <stop
         style="stop-color:#1477d8;stop-opacity:1;"
         offset="0.15652174"
         id="stop10879" />
      <stop
         style="stop-color:#1788e5;stop-opacity:1;"
         offset="0.52463776"
         id="stop10881" />
      <stop
         style="stop-color:#08279d;stop-opacity:1;"
         offset="0.884058"
         id="stop10883" />
      <stop
         style="stop-color:#061a94;stop-opacity:1;"
         offset="1"
         id="stop10885" />
    </linearGradient>
    <linearGradient
       inkscape:collect="always"
       xlink:href="#linearGradient10901"
       id="linearGradient14983"
       gradientUnits="userSpaceOnUse"
       gradientTransform="matrix(3.0335334,0,0,3.0085152,-341.74956,-179.30137)"
       x1="144.21924"
       y1="80.257591"
       x2="155.6264"
       y2="102.25713" />
    <linearGradient
       inkscape:collect="always"
       id="linearGradient10901">
      <stop
         style="stop-color:#dfe19e;stop-opacity:1;"
         offset="0"
         id="stop10889" />
      <stop
         style="stop-color:#60bb3a;stop-opacity:1;"
         offset="0.34761071"
         id="stop10893" />
      <stop
         style="stop-color:#378d33;stop-opacity:1;"
         offset="0.42318839"
         id="stop10895" />
      <stop
         style="stop-color:#01732d;stop-opacity:1;"
         offset="0.6318841"
         id="stop10897" />
      <stop
         style="stop-color:#007834;stop-opacity:1;"
         offset="1"
         id="stop10899" />
    </linearGradient>
    <filter
       inkscape:collect="always"
       style="color-interpolation-filters:sRGB"
       id="filter4123-9-11"
       x="-0.020968799"
       y="-0.021643974"
       width="1.0419376"
       height="1.043288">
      <feGaussianBlur
         inkscape:collect="always"
         stdDeviation="0.13073442"
         id="feGaussianBlur4125-3-8" />
    </filter>
    <linearGradient
       inkscape:collect="always"
       xlink:href="#linearGradient10911"
       id="linearGradient14985"
       gradientUnits="userSpaceOnUse"
       gradientTransform="matrix(3.0890478,0,0,3,-351.50682,-178.62067)"
       x1="155.21899"
       y1="79.850197"
       x2="162.55219"
       y2="90.442566" />
    <linearGradient
       inkscape:collect="always"
       id="linearGradient10911">
      <stop
         style="stop-color:#e95a08;stop-opacity:1;"
         offset="0"
         id="stop10905" />
      <stop
         style="stop-color:#eb6108;stop-opacity:1;"
         offset="1"
         id="stop10909" />
    </linearGradient>
    <linearGradient
       inkscape:collect="always"
       xlink:href="#linearGradient89432"
       id="linearGradient14987"
       gradientUnits="userSpaceOnUse"
       gradientTransform="matrix(2.9294079,0,0,3.0000006,-326.35539,-176.54542)"
       x1="145.03403"
       y1="81.072395"
       x2="145.03403"
       y2="116.1087" />
    <linearGradient
       inkscape:collect="always"
       id="linearGradient89432">
      <stop
         style="stop-color:#1788e5;stop-opacity:1;"
         offset="0"
         id="stop89426" />
      <stop
         style="stop-color:#0a34a7;stop-opacity:1;"
         offset="0.3130435"
         id="stop89450" />
      <stop
         style="stop-color:#08279d;stop-opacity:1;"
         offset="0.48985508"
         id="stop89448" />
      <stop
         style="stop-color:#061a94;stop-opacity:1;"
         offset="1"
         id="stop89430" />
    </linearGradient>
    <filter
       inkscape:collect="always"
       style="color-interpolation-filters:sRGB"
       id="filter37448-1-0-0-3-4-59"
       x="-0.021590998"
       y="-0.017085539"
       width="1.043182"
       height="1.0341711">
      <feGaussianBlur
         inkscape:collect="always"
         stdDeviation="0.16300487"
         id="feGaussianBlur37450-8-9-3-5-5-9" />
    </filter>
    <linearGradient
       inkscape:collect="always"
       xlink:href="#linearGradient41392"
       id="linearGradient14989"
       gradientUnits="userSpaceOnUse"
       gradientTransform="matrix(2.9450108,0,0,3.0085158,-328.48998,-177.22615)"
       x1="144.21924"
       y1="80.257591"
       x2="155.6264"
       y2="102.25713" />
    <linearGradient
       inkscape:collect="always"
       id="linearGradient41392">
      <stop
         style="stop-color:#c6dd8c;stop-opacity:1;"
         offset="0"
         id="stop41380" />
      <stop
         style="stop-color:#c6dd8c;stop-opacity:1;"
         offset="0"
         id="stop41382" />
      <stop
         style="stop-color:#60a33a;stop-opacity:1;"
         offset="0.18819042"
         id="stop41384" />
      <stop
         style="stop-color:#378d33;stop-opacity:1;"
         offset="0.32173911"
         id="stop41386" />
      <stop
         style="stop-color:#01732d;stop-opacity:1;"
         offset="0.6318841"
         id="stop41388" />
      <stop
         style="stop-color:#007834;stop-opacity:1;"
         offset="1"
         id="stop41390" />
    </linearGradient>
    <linearGradient
       inkscape:collect="always"
       xlink:href="#linearGradient4421"
       id="linearGradient14991"
       gradientUnits="userSpaceOnUse"
       gradientTransform="matrix(2.9450108,0,0,2.9784698,-328.75692,-174.94198)"
       x1="144.21924"
       y1="80.257591"
       x2="155.6264"
       y2="102.25713" />
    <linearGradient
       inkscape:collect="always"
       id="linearGradient4421">
      <stop
         style="stop-color:#c6dd8c;stop-opacity:1;"
         offset="0"
         id="stop4409" />
      <stop
         style="stop-color:#c6dd8c;stop-opacity:1;"
         offset="0.09285362"
         id="stop4411" />
      <stop
         style="stop-color:#60a33a;stop-opacity:1;"
         offset="1"
         id="stop4413" />
    </linearGradient>
    <filter
       inkscape:collect="always"
       style="color-interpolation-filters:sRGB"
       id="filter4123-7-6-96"
       x="-0.020968799"
       y="-0.021643974"
       width="1.0419376"
       height="1.043288">
      <feGaussianBlur
         inkscape:collect="always"
         stdDeviation="0.13073442"
         id="feGaussianBlur4125-0-6-0" />
    </filter>
    <linearGradient
       inkscape:collect="always"
       xlink:href="#linearGradient41402"
       id="linearGradient14993"
       gradientUnits="userSpaceOnUse"
       gradientTransform="matrix(2.9294079,0,0,3.0000006,-326.35539,-176.54542)"
       x1="155.21899"
       y1="79.850197"
       x2="162.55219"
       y2="90.442566" />
    <linearGradient
       inkscape:collect="always"
       id="linearGradient41402">
      <stop
         style="stop-color:#dc3508;stop-opacity:1;"
         offset="0"
         id="stop41394" />
      <stop
         style="stop-color:#eb6108;stop-opacity:1;"
         offset="0.64347827"
         id="stop41396" />
      <stop
         style="stop-color:#f5c802;stop-opacity:1;"
         offset="1"
         id="stop41398" />
      <stop
         style="stop-color:#f5c802;stop-opacity:1;"
         offset="1"
         id="stop41400" />
    </linearGradient>
  </defs>
  <g
     inkscape:label="Layer 1"
     inkscape:groupmode="layer"
     id="layer1">
    <g
       style="clip-rule:evenodd;fill:#30383e;fill-opacity:1;fill-rule:evenodd;image-rendering:optimizeQuality;shape-rendering:geometricPrecision;text-rendering:geometricPrecision"
       id="g1273-4-6-8-9-9-9-9-0-0-3-6"
       transform="matrix(0.07619616,0,0,0.07619616,-107.78838,66.665765)">
      <g
         id="Layer_x0020_1-8-8-4-8-2-1-5-0-5-2-4"
         inkscape:label="Layer 1"
         inkscape:groupmode="layer"
         style="fill:#30383e;fill-opacity:1">
  <metadata
   id="CorelCorpID_0Corel-Layer-8-9-8-3-8-4-5-1-8-8-2" />

  
  
  
  
  <path
   class="fil4"
   d="m 2169.7506,1441 -1,37 c -21,-27 -57,-43 -100,-43 -80,0 -136,59 -136,143 0,84 56,143 136,143 42,0 79,-16 100,-43 l 1,37 h 56 v -274 z m -90,224 c -49,0 -84,-36 -84,-87 0,-51 34,-87 84,-87 49,0 84,36 84,87 0,51 -34,87 -84,87 z"
   id="path1222-4-6-2-8-6-6-8-3-2-2-7"
   style="fill:#30383e;fill-opacity:1" />

  <polygon
   class="fil5"
   points="756,1651 673,1441 606,1441 722,1715 789,1715 905,1441 839,1441 "
   id="polygon1224-8-7-3-9-3-0-8-6-6-2-64"
   style="fill:#30383e;fill-opacity:1"
   transform="translate(1666.7506)" />

  <path
   class="fil6"
   d="m 2670.7506,1448 c -77,36 -105,112 -69,189 37,80 114,107 196,69 43,-20 75,-55 87,-93 l -50,-17 c -8,23 -31,46 -60,59 -44,20 -85,11 -106,-23 l 199,-92 c -35,-97 -110,-132 -198,-91 z m 24,48 c 41,-19 79,-9 99,24 l -145,67 c -10,-40 6,-73 45,-91 z"
   id="path1226-2-6-2-4-8-7-3-4-7-0-6"
   style="fill:#ff1300;fill-opacity:0.917647" />

  <path
   class="fil7"
   d="m 3057.7506,1721 c 89,0 146,-61 146,-143 0,-82 -57,-143 -146,-143 -89,0 -147,61 -147,143 0,82 57,143 147,143 z m 0,-57 c -52,0 -84,-39 -84,-87 0,-48 33,-87 84,-87 51,0 84,39 84,87 0,48 -33,87 -84,87 z"
   id="path1228-9-8-3-7-0-10-5-3-1-1-77"
   style="fill:#30383e;fill-opacity:1" />

  <path
   class="fil8"
   d="m 3412.7506,1435 c -39,0 -71,14 -95,42 l -1,-36 h -56 v 274 h 62 v -144 c 0,-46 32,-79 77,-79 42,0 67,28 67,76 v 148 h 62 v -152 c 0,-78 -47,-128 -117,-128 z"
   id="path1230-7-1-0-7-6-3-4-2-4-9-7"
   style="fill:#30383e;fill-opacity:1" />

 </g>
    </g>
    <path
       style="fill:url(#linearGradient14981);fill-opacity:1;stroke:#2c6791;stroke-width:0;stroke-linecap:butt;stroke-linejoin:miter;stroke-dasharray:none;stroke-opacity:1"
       d="m 158.74766,80.711825 -45.48993,78.231095 c -1.22997,1.93101 -3.78759,5.63634 -4.8738,6.14697 0,0 -1.27899,1.2057 -6.67956,1.09509 -3.46186,-0.0708 -7.80835,-2.23455 -9.5124,-4.26105 -5.647204,-6.71562 -38.43393,-60.90249 -47.13096,-76.122421 -1.36446,-2.387824 -1.11099,-1.800094 -1.11099,-1.800094 0,0 -3.02202,-5.64456 -3.17928,-10.39926 -0.2115,-6.39132 3.19533,-12.38904 11.27526,-12.4422 24.249416,-0.1596 97.74123,1.25175 97.74123,1.25175 0,0 12.55539,4.57881 8.96043,18.30012 z"
       id="path452-1-8-2-0-0-6-9-7-26"
       sodipodi:nodetypes="cccssscsscc" />
    <path
       style="fill:url(#linearGradient14983);fill-opacity:1;stroke:#000000;stroke-width:0;stroke-linecap:butt;stroke-linejoin:miter;stroke-dasharray:none;stroke-opacity:1"
       d="m 120.94769,145.46973 -47.690044,-84.268285 40.221694,0.033 27.67257,49.584205 z"
       id="path1318-8-9-6-1-3-9-3-1-4"
       sodipodi:nodetypes="ccccc" />
    <path
       style="mix-blend-mode:normal;fill:#007233;fill-opacity:1;stroke:#000000;stroke-width:0;stroke-linecap:butt;stroke-linejoin:miter;stroke-dasharray:none;stroke-opacity:1;filter:url(#filter4123-9-11)"
       d="m 99.351755,212.64563 c 0,0 4.171945,2.24325 2.323225,5.61088 -2.376465,4.32895 -5.905195,7.93134 -5.905195,7.93134 -3.677633,-6.57042 -7.330643,-12.3547 -8.585589,-14.49656 z"
       id="path1323-6-7-9-7-9-6-7-0-7-16"
       sodipodi:nodetypes="csccc"
       transform="matrix(2.4060945,0,0,3.9529005,-96.125187,-774.08165)" />
    <path
       style="fill:url(#linearGradient14985);fill-opacity:1;stroke:#000000;stroke-width:0;stroke-linecap:butt;stroke-linejoin:miter;stroke-dasharray:none;stroke-opacity:1"
       d="m 111.3257,61.217645 c 0,0 23.79099,0.0678 36.71244,-0.003 6.89031,-0.0378 14.88903,12.97701 10.39923,20.77131 -8.45016,14.669494 -17.98341,29.219155 -17.98341,29.219155 L 111.23528,61.351865 Z"
       id="path1323-6-7-0-27-4-7-2-7-1"
       sodipodi:nodetypes="cssccc" />
    <path
       style="clip-rule:evenodd;fill:url(#linearGradient14987);fill-opacity:1;fill-rule:evenodd;stroke:#2c6791;stroke-width:0;stroke-linecap:butt;stroke-linejoin:miter;stroke-dasharray:none;stroke-opacity:1;image-rendering:optimizeQuality;shape-rendering:geometricPrecision;text-rendering:geometricPrecision"
       d="m 157.50149,82.787075 -34.9446,61.376815 c -1.35876,2.14362 -10.53204,20.58133 -18.18447,24.75703 0,0 -2.02692,1.06443 -4.68637,0.38784 -3.39897,-0.86472 -5.51019,-3.28317 -7.17416,-5.30967 -5.514304,-6.71562 -37.52955,-60.90249 -46.02192,-76.122391 -1.33236,-2.38782 -1.08486,-1.80009 -1.08486,-1.80009 0,0 -2.95089,-5.644564 -3.10446,-10.399264 -0.2064,-6.39132 3.12015,-12.38904 11.00994,-12.4422 23.678816,-0.1596 95.44131,1.25175 95.44131,1.25175 0,0 12.25995,4.57881 8.74959,18.30009 z"
       id="path452-1-8-2-0-0-6-9-97-5-2"
       sodipodi:nodetypes="cccssscssccc" />
    <path
       style="clip-rule:evenodd;opacity:0.774;mix-blend-mode:normal;fill:#071e96;fill-opacity:1;fill-rule:evenodd;stroke:#000000;stroke-width:0;stroke-linecap:butt;stroke-linejoin:miter;stroke-dasharray:none;stroke-opacity:1;filter:url(#filter37448-1-0-0-3-4-59);image-rendering:optimizeQuality;shape-rendering:geometricPrecision;text-rendering:geometricPrecision"
       d="m 85.667813,232.19322 -3.169787,-6.07224 -8.889854,-16.82503 8.029294,0.0873 3.969786,0.0432 6.120163,13.87119 z"
       id="path1318-8-9-1-3-1-1-0-3-3-3-7"
       sodipodi:nodetypes="ccccccc"
       transform="matrix(2.9868832,0.51308712,-0.28128012,3.5985804,-86.092017,-726.94727)" />
    <path
       style="clip-rule:evenodd;fill:url(#linearGradient14989);fill-opacity:1;fill-rule:evenodd;stroke:#000000;stroke-width:0;stroke-linecap:butt;stroke-linejoin:miter;stroke-dasharray:none;stroke-opacity:1;image-rendering:optimizeQuality;shape-rendering:geometricPrecision;text-rendering:geometricPrecision"
       d="m 120.70514,147.54495 -46.298404,-84.268225 39.048004,0.033 26.86506,49.584175 z"
       id="path1318-8-9-6-1-3-9-3-35-7-71"
       sodipodi:nodetypes="ccccc" />
    <path
       style="clip-rule:evenodd;fill:url(#linearGradient14991);fill-opacity:1;fill-rule:evenodd;stroke:#000000;stroke-width:0;stroke-linecap:butt;stroke-linejoin:miter;stroke-dasharray:none;stroke-opacity:1;image-rendering:optimizeQuality;shape-rendering:geometricPrecision;text-rendering:geometricPrecision"
       d="m 120.64658,147.53223 -16.89579,-30.96441 -29.272414,-53.013835 1.37316,-0.1212 45.618544,82.868185 z"
       id="path1318-8-9-6-1-3-9-3-35-7-7-41"
       sodipodi:nodetypes="cccccc" />
    <path
       style="clip-rule:evenodd;mix-blend-mode:normal;fill:#007233;fill-opacity:1;fill-rule:evenodd;stroke:#000000;stroke-width:0;stroke-linecap:butt;stroke-linejoin:miter;stroke-dasharray:none;stroke-opacity:1;filter:url(#filter4123-7-6-96);image-rendering:optimizeQuality;shape-rendering:geometricPrecision;text-rendering:geometricPrecision"
       d="m 99.351755,212.64563 c 0,0 4.171945,2.24325 2.323225,5.61088 -2.376465,4.32895 -5.905195,7.93134 -5.905195,7.93134 -3.677633,-6.57042 -7.330643,-12.3547 -8.585589,-14.49656 z"
       id="path1323-6-7-9-7-9-6-7-0-2-0-3"
       sodipodi:nodetypes="csccc"
       transform="matrix(2.3494775,0,0,3.9529014,-91.374027,-772.00655)" />
    <path
       style="clip-rule:evenodd;fill:url(#linearGradient14993);fill-opacity:1;fill-rule:evenodd;stroke:#000000;stroke-width:0;stroke-linecap:butt;stroke-linejoin:miter;stroke-dasharray:none;stroke-opacity:1;image-rendering:optimizeQuality;shape-rendering:geometricPrecision;text-rendering:geometricPrecision"
       d="m 112.55822,63.292955 c 0,0 22.5615,0.0678 34.81521,-0.003 6.53418,-0.0378 14.11956,12.97701 9.86181,20.77128 -8.01348,14.669494 -17.05404,29.219095 -17.05404,29.219095 L 112.47248,63.427175 Z"
       id="path1323-6-7-0-27-4-7-2-9-3-1"
       sodipodi:nodetypes="cssccc" />
  </g>
</svg>
